<svg width="148" height="46" viewBox="0 0 148 46" fill="none" xmlns="http://www.w3.org/2000/svg">
<path d="M89.745 20.0123C89.745 19.4814 89.9391 19.0597 90.3296 18.7473C90.7177 18.4368 91.2448 18.2796 91.9108 18.2796H99.6062C99.7141 18.4176 99.8099 18.5997 99.8937 18.824C99.9824 19.0501 100.028 19.284 100.028 19.5293C100.028 20.0047 99.8961 20.342 99.635 20.5413C99.3786 20.7368 99.0432 20.8327 98.6287 20.8327H93.7125V22.573H98.9546C99.0624 22.7072 99.1582 22.8835 99.2421 23.102C99.3235 23.3167 99.3667 23.5505 99.3667 23.7997C99.3667 24.2712 99.2421 24.6047 98.9929 24.804C98.7485 25.0033 98.4179 25.103 97.9962 25.103H93.7125V27.0657H99.7021C99.8099 27.1998 99.9057 27.3781 99.9896 27.6023C100.071 27.8285 100.114 28.0662 100.114 28.3153C100.114 28.7868 99.9848 29.1242 99.7308 29.3273C99.4745 29.5324 99.1367 29.634 98.715 29.634H91.9108C91.2448 29.634 90.7177 29.4807 90.3296 29.174C89.9391 28.8635 89.745 28.438 89.745 27.9013V20.0123Z" fill="white"/>
<path d="M109.721 20.5567C108.518 20.5567 107.598 20.8518 106.961 21.4383C106.329 22.021 106.012 22.8471 106.012 23.9147C106.012 24.9937 106.362 25.8275 107.066 26.414C107.776 26.9967 108.727 27.288 109.922 27.288C110.56 27.288 111.101 27.219 111.542 27.081C111.988 26.943 112.414 26.7877 112.816 26.6133C113.078 26.7877 113.281 26.9967 113.43 27.242C113.583 27.4835 113.66 27.7633 113.66 28.0853C113.66 28.5971 113.305 29.0322 112.596 29.3887C111.887 29.7413 110.809 29.9177 109.366 29.9177C108.324 29.9177 107.344 29.7988 106.424 29.565C105.509 29.3254 104.711 28.9593 104.029 28.4687C103.343 27.978 102.804 27.357 102.409 26.6057C102.011 25.8543 101.815 24.9573 101.815 23.9147C101.815 22.9448 102.002 22.09 102.38 21.354C102.764 20.6142 103.283 19.9874 103.942 19.4757C104.606 18.9658 105.38 18.5787 106.261 18.318C107.148 18.0573 108.097 17.927 109.108 17.927C110.538 17.927 111.647 18.1148 112.433 18.4867C113.219 18.8604 113.612 19.3377 113.612 19.9203C113.612 20.2423 113.509 20.5241 113.305 20.7637C113.099 20.9994 112.867 21.1853 112.606 21.3233C112.203 21.1087 111.772 20.9285 111.312 20.779C110.852 20.6314 110.32 20.5567 109.721 20.5567Z" fill="white"/>
<path d="M128.451 29.5037C128.278 29.5458 128.01 29.5822 127.646 29.6187C127.281 29.6532 126.92 29.6723 126.563 29.6723C126.203 29.6723 125.887 29.6493 125.614 29.6033C125.346 29.5631 125.118 29.4864 124.934 29.3733C124.747 29.2622 124.608 29.1088 124.512 28.9133C124.421 28.714 124.378 28.4514 124.378 28.1237V25.218H119.902V29.5037C119.73 29.5458 119.461 29.5822 119.097 29.6187C118.733 29.6532 118.371 29.6723 118.014 29.6723C117.655 29.6723 117.339 29.6493 117.066 29.6033C116.797 29.5631 116.567 29.4864 116.376 29.3733C116.189 29.2622 116.05 29.1088 115.954 28.9133C115.863 28.714 115.82 28.4514 115.82 28.1237V18.2797C115.992 18.2547 116.263 18.2222 116.634 18.18C117.011 18.134 117.368 18.111 117.708 18.111C118.065 18.111 118.379 18.134 118.647 18.18C118.92 18.2222 119.15 18.2988 119.337 18.41C119.521 18.5231 119.663 18.6783 119.759 18.8777C119.854 19.077 119.902 19.3377 119.902 19.6597V22.642H124.378V18.2797C124.543 18.2547 124.811 18.2222 125.183 18.18C125.559 18.134 125.921 18.111 126.266 18.111C126.623 18.111 126.936 18.134 127.205 18.18C127.478 18.2222 127.708 18.2988 127.895 18.41C128.079 18.5231 128.216 18.6783 128.307 18.8777C128.403 19.077 128.451 19.3377 128.451 19.6597V29.5037Z" fill="white"/>
<path d="M43.1237 28.9422C43.0356 28.9143 42.9647 28.8739 42.9109 28.8195C42.6229 28.8432 42.3349 28.8558 42.0447 28.8558C41.6944 28.8558 41.3462 28.8376 41.0001 28.8C41.3999 29.3716 42.0082 29.8262 42.8228 30.1636C43.5987 30.48 44.0759 30.4257 45.0001 30.3058C44.6003 29.6212 44.2199 29.2824 43.1237 28.9422Z" fill="#F7931E"/>
<path d="M41.0001 27.882C42.6342 28.2435 44.6403 27.7554 46.0001 26.6777C44.6116 26.1514 43.1693 25.7916 41.6714 25.6C41.2571 26.3179 41.0327 27.0775 41.0001 27.882Z" fill="#F7931E"/>
<path d="M44.7612 6.32211C44.7034 6.46174 44.6399 6.60136 44.5725 6.74409C44.536 6.81545 44.4801 6.8713 44.4012 6.91474C44.3223 6.95818 44.2357 6.97989 44.1414 6.97989C44.0836 6.97989 44.0278 6.97059 43.9739 6.95352C43.8565 6.91474 43.7718 6.84803 43.7218 6.75495C43.6717 6.66031 43.6698 6.56568 43.7179 6.47104C45.0364 3.77321 43.9778 1.97052 42.8576 0.934204C42.7402 0.827159 42.5958 0.783721 42.4207 0.80544C42.2551 0.824057 42.1377 0.893868 42.0723 1.01798C40.009 4.85452 32.7969 5.73414 32.4947 5.76827H32.4716C32.4601 5.76983 32.4505 5.76983 32.4389 5.76827H12.0424C11.6805 5.76983 11.3187 5.78379 10.9588 5.81326C10.6008 5.84119 10.2428 5.88463 9.8886 5.94203C9.53445 5.99943 9.18414 6.06924 8.83769 6.15457C8.49123 6.23989 8.15055 6.33763 7.81757 6.44933C7.48267 6.56102 7.15738 6.68513 6.83788 6.82321C6.52029 6.96128 6.21041 7.11021 5.91015 7.27155C5.60796 7.43445 5.31925 7.6082 5.03824 7.79281C4.75915 7.97743 4.49161 8.1729 4.23562 8.37923C3.98155 8.58556 3.73904 8.8012 3.50999 9.02615C3.27902 9.2511 3.06537 9.48536 2.86328 9.72737C2.6631 9.97094 2.4764 10.2207 2.30702 10.4767C2.13572 10.7342 1.98174 10.9964 1.84316 11.2663C1.70458 11.5363 1.58332 11.8093 1.47746 12.0886C1.37352 12.3678 1.28498 12.6502 1.21377 12.9356C1.14448 13.2211 1.09059 13.5096 1.05401 13.7997C1.01937 14.0898 1.00205 14.3799 1.00012 14.6716V30.8089C1.00205 31.1006 1.01937 31.3907 1.05594 31.6808C1.09058 31.9709 1.14448 32.2579 1.21569 32.5449C1.28691 32.8304 1.37352 33.1127 1.47938 33.3904C1.58525 33.6697 1.7065 33.9427 1.84509 34.2126C1.98367 34.481 2.13765 34.7448 2.30895 35.0007C2.48025 35.2583 2.66503 35.508 2.8652 35.7501C3.0673 35.9921 3.28287 36.2263 3.51192 36.4513C3.74096 36.6762 3.98348 36.8919 4.23947 37.0982C4.49546 37.303 4.763 37.4985 5.04209 37.6831C5.32118 37.8692 5.61181 38.0414 5.91207 38.2043C6.21233 38.3657 6.52222 38.5146 6.8398 38.6527C7.15931 38.7907 7.48459 38.9149 7.8195 39.0266C8.15248 39.1382 8.49316 39.236 8.83769 39.3213C9.18414 39.4051 9.53445 39.4764 9.8886 39.5338C10.2428 39.5912 10.6008 39.6331 10.9607 39.6626C11.3206 39.6905 11.6805 39.7061 12.0424 39.7061H18.4595C16.7157 37.1137 15.5397 34.3647 14.9314 31.4574C14.9218 31.3612 14.9545 31.2744 15.0277 31.1968C15.1008 31.1208 15.199 31.0742 15.3164 31.0572C15.4357 31.0416 15.5454 31.0603 15.6474 31.113C15.7475 31.1658 15.813 31.2387 15.8438 31.3333C16.477 34.3693 17.7435 37.2223 19.6451 39.8922C19.9839 40.3716 20.3477 40.8494 20.7268 41.3102C21.668 42.4582 22.9884 43.8575 24.8497 44.4982C26.4491 45.049 28.7203 44.8876 29.7539 43.6667C30.4353 42.8615 30.4718 41.7864 30.4064 40.7455C30.3948 40.5314 30.3775 40.3188 30.3583 40.1048C30.0715 36.94 29.1399 33.9024 27.5616 30.9951C27.5289 30.9486 27.5116 30.9005 27.5058 30.8477C27.5 30.795 27.5077 30.7438 27.5289 30.6941C27.5501 30.6445 27.5828 30.6011 27.6251 30.5623C27.6694 30.5235 27.7214 30.494 27.781 30.4723C27.8407 30.4506 27.9042 30.4413 27.9697 30.4413C28.0351 30.4413 28.0967 30.4521 28.1564 30.4738C28.216 30.494 28.268 30.525 28.3103 30.5638C28.3546 30.6026 28.3873 30.6476 28.4085 30.6972C29.9695 33.5735 30.9145 36.5769 31.2437 39.7061H40.9598C41.3197 39.7061 41.6816 39.6905 42.0415 39.6626C42.3995 39.6331 42.7575 39.5912 43.1116 39.5338C43.4658 39.4764 43.8161 39.4051 44.1626 39.3213C44.509 39.236 44.8478 39.1382 45.1827 39.0266C45.5157 38.9149 45.8429 38.7907 46.1604 38.6527C46.48 38.5146 46.7898 38.3657 47.0901 38.2043C47.3904 38.0414 47.6791 37.8692 47.9601 37.6831C48.2392 37.4985 48.5067 37.303 48.7627 37.0982C49.0168 36.8919 49.2593 36.6762 49.4883 36.4513C49.7193 36.2263 49.9329 35.9921 50.135 35.7501C50.3352 35.508 50.5219 35.2583 50.6913 35.0007C50.8626 34.7448 51.0166 34.481 51.1552 34.2126C51.2937 33.9427 51.4169 33.6697 51.5209 33.3904C51.6267 33.1127 51.7153 32.8304 51.7846 32.5449C51.8558 32.2579 51.9097 31.9709 51.9462 31.6808C51.9809 31.3907 52.0001 31.1006 52.0001 30.8089V14.6716C52.0001 10.7575 49.1669 7.50271 44.7612 6.32211ZM46.8476 27.0919C46.0353 27.835 45.046 28.3593 43.8777 28.6649C44.8324 29.1831 45.1634 29.8145 45.5426 30.7112C45.5638 30.7624 45.5715 30.8151 45.5638 30.8679C45.558 30.9222 45.5368 30.9718 45.5022 31.0184C45.4695 31.0649 45.4252 31.1037 45.3694 31.1347C45.3155 31.1673 45.2539 31.1875 45.1884 31.1968C45.0268 31.2216 44.8766 31.2449 44.7323 31.2681C44.3435 31.3442 43.9489 31.3861 43.5486 31.3985C42.9981 31.3954 42.4957 31.2681 42.0415 31.0199C41.4872 30.7329 41.0137 30.3761 40.6229 29.9495C40.2322 29.5229 39.9493 29.0528 39.7761 28.5408C39.7587 28.4834 39.7587 28.4245 39.7761 28.3671C39.7761 28.3671 39.7761 28.3671 39.7761 28.3609C39.753 27.2951 40.0667 26.2991 40.7192 25.3714C40.7654 25.3047 40.8308 25.2535 40.9155 25.2209C41.0002 25.1868 41.0887 25.1744 41.183 25.1837C43.1155 25.3838 44.9575 25.8275 46.709 26.5147C46.7725 26.5411 46.8245 26.5768 46.8687 26.6233C46.9111 26.6683 46.94 26.7195 46.9534 26.7769C46.9669 26.8328 46.965 26.8886 46.9477 26.9445C46.9284 27.0003 46.8957 27.05 46.8495 27.0934L46.8476 27.0919Z" fill="#29ABE2"/>
<path d="M46.7468 26.1734C45.0474 25.4667 43.2582 25.0089 41.3812 24.8031C41.2896 24.7935 41.2036 24.8063 41.1214 24.8414C41.0391 24.8765 40.9755 24.9275 40.9307 24.9961C40.2969 25.9501 39.9922 26.9742 40.0127 28.0701C40.0127 28.0701 40.0127 28.0701 40.0127 28.0765C39.9959 28.1371 39.9959 28.1962 40.0127 28.2568C40.1829 28.7832 40.4596 29.2682 40.8409 29.7085C41.2205 30.1487 41.6822 30.5157 42.2225 30.8108C42.6637 31.066 43.1517 31.1968 43.6864 31.2C44.0734 31.1873 44.4547 31.1426 44.8305 31.066C44.9707 31.0421 45.1165 31.0182 45.2736 30.9926C45.3372 30.9831 45.397 30.9623 45.4493 30.9304C45.5035 30.8985 45.5465 30.857 45.5783 30.8092C45.612 30.7613 45.6325 30.7103 45.6381 30.6544C45.6456 30.6002 45.6381 30.546 45.6176 30.4933C45.2493 29.5713 44.9277 28.922 44.0004 28.3892C45.1371 28.0733 46.1018 27.5326 46.8907 26.7668C46.9356 26.7222 46.9674 26.6711 46.9842 26.6137C47.0029 26.5563 47.0048 26.4988 46.9917 26.4414C46.9786 26.384 46.9506 26.3313 46.9094 26.2835C46.8664 26.2372 46.8141 26.2005 46.7524 26.1734H46.7468ZM44.5968 30.321C43.7929 30.4582 43.3742 30.5204 42.703 30.1583C41.9944 29.7723 41.4654 29.2522 41.1176 28.5998C41.4186 28.6428 41.7215 28.6652 42.0262 28.6652C42.2786 28.6636 42.5291 28.6492 42.7796 28.6221C42.8264 28.6843 42.8881 28.7322 42.9647 28.7641C43.9182 29.1501 44.2491 29.5378 44.5968 30.321ZM40.912 27.7814C40.9438 27.0141 41.1625 26.2867 41.5663 25.6007C43.0264 25.7842 44.4323 26.1287 45.7858 26.6328C44.4603 27.6602 42.5048 28.1276 40.912 27.7814Z" fill="#29ABE2"/>
<path d="M11.1758 5.60001C10.8306 5.62993 10.4873 5.67246 10.148 5.72601C9.80665 5.78113 9.46931 5.84728 9.13792 5.92604C8.80455 6.00479 8.47714 6.09614 8.15369 6.19851C7.83222 6.30246 7.51671 6.41587 7.20716 6.54187C6.8976 6.66629 6.59598 6.80332 6.30229 6.95137C6.00861 7.09785 5.72485 7.25693 5.44903 7.42388C5.1732 7.59241 4.90928 7.77038 4.6533 7.95781C4.39931 8.14524 4.15523 8.34212 3.92306 8.54687C3.69089 8.75162 3.47063 8.96425 3.26228 9.18633C3.0559 9.40683 2.85945 9.63521 2.67888 9.86988C2.4983 10.1046 2.32963 10.3471 2.17684 10.5944C2.02206 10.8417 1.88316 11.0937 1.75814 11.3504C1.63511 11.6087 1.52399 11.8702 1.43073 12.1348C1.33548 12.4009 1.2561 12.6687 1.1926 12.9396C1.1291 13.2105 1.08148 13.483 1.04973 13.7586C1.01798 14.0327 1.00211 14.3083 1.00012 14.5839V30.9673C1.00211 31.2634 1.01997 31.5579 1.05767 31.8524C1.09339 32.147 1.14895 32.4383 1.22237 32.7297C1.29579 33.0195 1.38509 33.3062 1.49422 33.5881C1.60336 33.8716 1.72838 34.1488 1.87125 34.4229C2.01412 34.6953 2.17287 34.9631 2.34948 35.223C2.52608 35.4844 2.71658 35.738 2.92295 35.9837C3.13131 36.2294 3.35356 36.4672 3.58969 36.6956C3.82583 36.924 4.07586 37.1429 4.33978 37.3524C4.60369 37.5603 4.87952 37.7588 5.16725 37.9462C5.45498 38.1352 5.75461 38.31 6.06417 38.4754C6.37373 38.6392 6.69321 38.7904 7.02063 38.9306C7.35003 39.0707 7.68538 39.1967 8.03066 39.3101C8.37395 39.4236 8.72518 39.5228 9.08038 39.6094C9.43756 39.6945 9.79871 39.7669 10.1638 39.8252C10.529 39.8835 10.898 39.926 11.2691 39.9559C11.6402 39.9843 12.0113 40 12.3843 40H19.0001C17.2023 37.3682 15.9899 34.5772 15.3628 31.6256C5.07994 21.5439 11.1699 5.62048 11.1758 5.60001Z" fill="#088AB7"/>
<path d="M30.9765 40.7155C30.9645 40.4998 30.9464 40.2856 30.9264 40.0699C30.8603 39.3572 30.7561 38.6491 30.6199 37.9458C30.6339 38.4756 30.5036 38.9836 30.2272 39.4697C29.9507 39.9543 29.554 40.3716 29.0391 40.7186C26.0979 42.6489 23.0485 40.7561 21.0991 38.9055C18.9112 36.8235 17.2123 34.5212 16.0001 32C16.7094 34.7791 17.9676 37.3971 19.7748 39.8558C20.1274 40.3372 20.5061 40.8186 20.9007 41.2844C21.8805 42.4395 23.2549 43.8509 25.1923 44.4964C26.8572 45.0513 29.2214 44.8872 30.2973 43.6571C31.0065 42.849 31.0446 41.7674 30.9765 40.7155Z" fill="#088AB7"/>
<path d="M52.0001 14.5911C52.0001 10.7536 49.0968 7.55843 44.5859 6.40001C44.5267 6.53701 44.4636 6.67401 44.3926 6.81406C44.3216 6.95106 44.1914 7.02717 44.0001 7.04087C48.0573 8.66204 51.01 11.772 52.0001 15.2V14.5911Z" fill="#83DFFF"/>
<path d="M43.2852 0.944312C43.148 0.828865 42.9794 0.782686 42.7747 0.805775C42.5813 0.825566 42.4441 0.901431 42.3676 1.03172C42.0235 1.60566 41.5669 2.12682 41.0001 2.5952C41.225 2.52428 41.4589 2.49295 41.7019 2.49955C41.947 2.50779 42.1764 2.55397 42.3923 2.63808C43.0333 2.89866 43.4134 3.40498 43.6788 3.90635C44.0994 4.70128 44.3131 5.55229 44.4908 6.4C45.7031 3.76781 44.529 1.98828 43.2852 0.944312Z" fill="#83DFFF"/>
<path d="M45.5002 5.57821C46.1897 3.02576 44.886 1.29683 43.9493 0.439324C43.7697 0.272458 43.5515 0.153488 43.2946 0.0777795C43.0358 0.00207147 42.7732 -0.0180147 42.5028 0.0159769C42.2362 0.0484232 41.9987 0.130312 41.7862 0.260097C41.5738 0.391427 41.4135 0.555204 41.3073 0.752972C39.5556 3.98216 33.1648 4.87829 32.6028 4.95246H12.1906C11.7908 4.95246 11.3929 4.96945 10.9951 5.00035C10.5991 5.03125 10.2032 5.07915 9.81309 5.14095C9.42103 5.2043 9.03476 5.28155 8.65236 5.37426C8.26995 5.46696 7.89528 5.57512 7.52639 5.69718C7.15751 5.81924 6.79828 5.95675 6.44678 6.10662C6.09334 6.25803 5.7515 6.42181 5.41931 6.59949C5.08905 6.77718 4.76845 6.96722 4.45944 7.16962C4.15043 7.37203 3.85493 7.58679 3.57296 7.81237C3.29099 8.03795 3.02446 8.27434 2.76953 8.52001C2.51652 8.76722 2.27897 9.0237 2.05687 9.28945C1.83669 9.5552 1.63004 9.82868 1.4427 10.1099C1.25343 10.3911 1.08348 10.68 0.930901 10.9736C0.778326 11.2687 0.643133 11.57 0.527253 11.8743C0.411373 12.1803 0.312875 12.4893 0.235622 12.8029C0.158369 13.1166 0.0984973 13.4318 0.0598712 13.7485C0.0193129 14.0668 0 14.3851 0 14.7049V30.7766C0 31.0965 0.0193129 31.4148 0.0598712 31.7315C0.0984973 32.0498 0.158369 32.365 0.235622 32.6786C0.314807 32.9907 0.411373 33.2997 0.527253 33.6057C0.645064 33.9116 0.778326 34.2113 0.932832 34.5064C1.08541 34.8015 1.25536 35.0889 1.44463 35.3701C1.63197 35.6513 1.83669 35.9248 2.0588 36.1906C2.2809 36.4563 2.51845 36.7128 2.77146 36.9584C3.02446 37.2057 3.29292 37.4421 3.57489 37.6676C3.85687 37.8932 4.15236 38.1064 4.46137 38.3088C4.77038 38.5128 5.08905 38.7013 5.42124 38.879C5.75343 39.0566 6.09528 39.2204 6.44678 39.3718C6.79828 39.5217 7.15944 39.6577 7.52832 39.7813C7.89721 39.9033 8.27188 40.0099 8.65429 40.1027C9.03476 40.1969 9.42103 40.2742 9.81309 40.336C10.2051 40.3993 10.5991 40.4457 10.9951 40.4781C11.3929 40.509 11.7908 40.5245 12.1906 40.526H19.0429C19.3384 40.9308 19.6532 41.3325 19.9719 41.725C21.0032 42.9718 22.4614 44.4968 24.6013 45.2276C25.3487 45.4779 26.127 45.6015 26.9382 45.6C28.4388 45.6 29.9626 45.1504 30.8781 44.0796C31.7472 43.0614 31.7993 41.8177 31.7259 40.628L31.7182 40.5229H38.8159C39.9013 41.9675 41.1412 43.3844 43.1285 43.8587C43.6693 43.9839 44.2236 44.0457 44.7875 44.0441C46.2843 44.0441 47.8815 43.6362 48.7023 42.7416C49.7723 41.5766 49.8785 39.5526 48.9727 38.2795C49.6641 37.8221 50.286 37.3107 50.8365 36.7437C51.385 36.1782 51.8523 35.571 52.2347 34.9221C52.6152 34.2731 52.9049 33.5995 53.1 32.8996C53.297 32.1997 53.3935 31.4905 53.3935 30.7736V14.7049C53.3974 10.4513 50.3092 6.90233 45.5002 5.57821ZM47.6633 42.1267C46.9178 42.9378 44.8513 43.1866 43.5032 42.8652C42.1551 42.5439 41.2146 41.6184 40.3455 40.526H41.2068C42.4023 40.526 43.5727 40.3885 44.718 40.1119C45.8633 39.8354 46.9332 39.4321 47.9298 38.9006C48.4899 39.8323 48.3953 41.3356 47.6633 42.1267ZM41.2068 39.4877H31.6275C31.2817 36.4022 30.3335 33.4419 28.7807 30.6036C28.7498 30.5387 28.7015 30.4815 28.6397 30.4306C28.5779 30.3811 28.5064 30.3425 28.4253 30.3162C28.3442 30.29 28.2592 30.2776 28.1723 30.2776C28.0835 30.2791 28.0004 30.293 27.9193 30.3209C27.8382 30.3502 27.7687 30.3888 27.7069 30.4398C27.647 30.4908 27.6026 30.5495 27.5717 30.616C27.5408 30.6809 27.5272 30.7488 27.5311 30.8199C27.535 30.8894 27.5543 30.9559 27.5929 31.0192C29.1689 33.9008 30.0998 36.9106 30.3837 40.047C30.4049 40.2587 30.4204 40.4688 30.4339 40.6821C30.4957 41.6925 30.4629 42.7339 29.812 43.4987C28.829 44.6529 26.6523 44.8012 25.115 44.2743C23.2918 43.647 21.9863 42.2781 21.0554 41.1533C20.6768 40.696 20.3157 40.2216 19.9757 39.7488C18.0811 37.1037 16.818 34.2778 16.1865 31.2695C16.1749 31.2 16.1478 31.1351 16.1015 31.0748C16.0571 31.0146 15.9991 30.9636 15.9296 30.9219C15.8581 30.8802 15.779 30.8508 15.694 30.8354C15.609 30.8184 15.5221 30.8168 15.4371 30.8276C15.3502 30.84 15.2691 30.8647 15.1957 30.9018C15.1204 30.9404 15.0586 30.9883 15.0103 31.0455C14.9601 31.1042 14.9253 31.1675 14.9079 31.2355C14.8906 31.3051 14.8906 31.373 14.9079 31.4426C15.5028 34.27 16.6403 36.9507 18.3206 39.4846H12.1906C11.8333 39.4846 11.4779 39.4707 11.1225 39.4414C10.7672 39.4136 10.4157 39.3718 10.0661 39.3162C9.71652 39.2606 9.37081 39.1911 9.02897 39.1076C8.68905 39.0242 8.353 38.9284 8.02274 38.8187C7.69442 38.7106 7.37188 38.5885 7.05708 38.4541C6.7442 38.3181 6.43712 38.1729 6.14163 38.0137C5.8442 37.8546 5.55837 37.6862 5.28219 37.5039C5.00794 37.3231 4.74335 37.1315 4.49034 36.9306C4.23927 36.7282 3.99978 36.5181 3.77382 36.2972C3.54785 36.0762 3.33541 35.8475 3.13648 35.6112C2.93755 35.3732 2.75601 35.1291 2.58605 34.8772C2.41802 34.6254 2.26545 34.3689 2.13026 34.1047C1.99313 33.8421 1.87339 33.5732 1.7691 33.2997C1.66481 33.0278 1.5779 32.7512 1.50837 32.4716C1.43884 32.1919 1.38476 31.9092 1.35 31.6264C1.31524 31.3421 1.29592 31.0579 1.29592 30.772V14.7049C1.29592 14.4191 1.31524 14.1348 1.35 13.8505C1.38476 13.5677 1.43884 13.285 1.50837 13.0053C1.5779 12.7257 1.66481 12.4491 1.7691 12.1772C1.87339 11.9037 1.99313 11.6349 2.13026 11.3722C2.26545 11.108 2.41802 10.8515 2.58605 10.5997C2.75601 10.3478 2.93755 10.1037 3.13648 9.86576C3.33541 9.62936 3.54785 9.40069 3.77382 9.17975C3.99978 8.95881 4.23927 8.74868 4.49034 8.54627C4.74335 8.34542 5.00794 8.15383 5.28219 7.97306C5.55837 7.79074 5.8442 7.62233 6.14163 7.46318C6.43712 7.30404 6.7442 7.15881 7.05708 7.02284C7.37188 6.88842 7.69442 6.76636 8.02274 6.65821C8.353 6.54851 8.68905 6.45271 9.02897 6.36928C9.37081 6.28585 9.71652 6.21632 10.0661 6.1607C10.4157 6.10507 10.7672 6.06336 11.1225 6.03554C11.4779 6.00619 11.8333 5.99228 12.1906 5.99228H32.6511C32.6684 5.99228 32.6839 5.99228 32.6993 5.99228C32.7167 5.99228 32.7302 5.99228 32.7457 5.99228C33.0547 5.95675 40.386 5.06834 42.497 1.17323C42.5356 1.10061 42.6032 1.05889 42.7017 1.04962C42.8098 1.03572 42.8987 1.06198 42.9701 1.12842C44.0614 2.12962 45.0907 3.87246 43.8006 6.49134C43.7697 6.55469 43.7543 6.62112 43.7562 6.69065C43.7581 6.75864 43.7755 6.82507 43.8103 6.88842C43.8431 6.95022 43.8914 7.00585 43.9532 7.05374C44.015 7.10164 44.0865 7.13872 44.1676 7.16344C44.241 7.18816 44.3182 7.19898 44.3993 7.20052C44.5326 7.20052 44.6543 7.16962 44.7644 7.11091C44.8744 7.05065 44.9536 6.97031 45.0038 6.87142C45.0502 6.77872 45.0965 6.67829 45.139 6.58559C49.0268 7.67795 51.6322 10.4235 52.0377 13.7856C51.6611 13.5523 51.2478 13.3715 50.7998 13.2402C50.2764 13.0934 49.7356 13.0223 49.1794 13.0285C48.6232 13.0347 48.0862 13.1166 47.5667 13.2757C47.4914 13.3035 47.4257 13.3422 47.3697 13.39C47.3118 13.4395 47.2693 13.4936 47.2384 13.5554C47.2075 13.6172 47.192 13.6805 47.192 13.747C47.192 13.8134 47.2075 13.8767 47.2384 13.9385C47.2693 14.0003 47.3137 14.0544 47.3697 14.1023C47.4257 14.1502 47.4933 14.1888 47.5667 14.2167C47.642 14.2445 47.7212 14.2615 47.8043 14.2646C47.8854 14.2692 47.9665 14.2599 48.0457 14.2398C48.2272 14.1827 48.4126 14.1394 48.6038 14.1085C48.795 14.0776 48.9882 14.0622 49.1832 14.0575C49.3783 14.0544 49.5714 14.0652 49.7646 14.09C49.9577 14.1131 50.147 14.1518 50.3304 14.2028C50.5139 14.2522 50.6916 14.3155 50.8616 14.3912C51.0335 14.467 51.1938 14.555 51.3444 14.6524C51.497 14.7512 51.636 14.8594 51.7635 14.9784C51.891 15.0958 52.003 15.2225 52.1034 15.3554V30.7751C52.1034 31.0609 52.0841 31.3452 52.0493 31.6295C52.0146 31.9123 51.9624 32.195 51.891 32.4747C51.8214 32.7543 51.7345 33.0309 51.6302 33.3044C51.5279 33.5763 51.4062 33.8451 51.271 34.1094C51.1339 34.372 50.9813 34.63 50.8133 34.8819C50.6433 35.1322 50.4598 35.3778 50.2628 35.6142C50.0639 35.8522 49.8515 36.0809 49.6255 36.3018C49.3995 36.5212 49.1601 36.7329 48.9071 36.9337C48.6541 37.1361 48.3914 37.3277 48.1152 37.5085C47.839 37.6893 47.5532 37.8592 47.2558 38.0184C46.9603 38.176 46.6551 38.3227 46.3403 38.4572C46.0255 38.5916 45.703 38.7136 45.3747 38.8233C45.0444 38.933 44.7083 39.0288 44.3665 39.1107C44.0266 39.1942 43.6809 39.2637 43.3313 39.3193C42.9817 39.3749 42.6283 39.4166 42.2729 39.4445C41.9195 39.4738 41.5622 39.4877 41.2068 39.4877Z" fill="#002B35"/>
<path d="M39.0001 21.1992C39.0001 21.4367 38.9712 21.6711 38.9134 21.9024C38.8556 22.1337 38.7707 22.3589 38.657 22.5779C38.5452 22.7953 38.4064 23.0035 38.2406 23.1993C38.0768 23.3967 37.8917 23.5787 37.6816 23.7452C37.4735 23.9133 37.246 24.0614 36.9993 24.194C36.7545 24.325 36.4942 24.4361 36.2224 24.5255C35.9487 24.6165 35.6673 24.6844 35.3781 24.7306C35.0871 24.7769 34.796 24.8 34.4992 24.8C34.2042 24.8 33.9112 24.7769 33.6221 24.7306C33.331 24.6844 33.0496 24.6165 32.7778 24.5255C32.5041 24.4361 32.2458 24.325 31.9991 24.194C31.7542 24.0614 31.5268 23.9133 31.3167 23.7452C31.1085 23.5787 30.9215 23.3967 30.7577 23.1993C30.5938 23.0035 30.455 22.7953 30.3413 22.5779C30.2295 22.3589 30.1428 22.1337 30.0849 21.9024C30.0271 21.6711 30.0001 21.4367 30.0001 21.1992C30.0001 20.9633 30.0271 20.7289 30.0849 20.4976C30.1428 20.2663 30.2295 20.0411 30.3413 19.8222C30.455 19.6032 30.5938 19.3965 30.7577 19.1992C30.9215 19.0033 31.1085 18.8213 31.3167 18.6548C31.5268 18.4867 31.7542 18.3371 31.9991 18.206C32.2458 18.075 32.5041 17.9639 32.7778 17.873C33.0496 17.7835 33.331 17.7157 33.6221 17.6694C33.9112 17.6231 34.2042 17.6 34.4992 17.6C34.796 17.6 35.0871 17.6231 35.3781 17.6694C35.6673 17.7157 35.9487 17.7835 36.2224 17.873C36.4942 17.9639 36.7545 18.075 36.9993 18.206C37.246 18.3371 37.4735 18.4867 37.6816 18.6548C37.8917 18.8213 38.0768 19.0033 38.2406 19.1992C38.4064 19.3965 38.5452 19.6032 38.657 19.8222C38.7707 20.0411 38.8556 20.2663 38.9134 20.4976C38.9712 20.7289 39.0001 20.9633 39.0001 21.1992Z" fill="#002B35"/>
<path d="M52.0001 21.1992C52.0001 21.4367 51.9712 21.6711 51.9134 21.9024C51.8556 22.1337 51.7707 22.3589 51.657 22.5779C51.5452 22.7953 51.4064 23.0035 51.2426 23.1993C51.0768 23.3967 50.8917 23.5787 50.6816 23.7452C50.4735 23.9133 50.246 24.0614 49.9993 24.194C49.7545 24.325 49.4942 24.4361 49.2224 24.5255C48.9487 24.6165 48.6673 24.6844 48.3781 24.7306C48.089 24.7769 47.796 24.8 47.4992 24.8C47.2042 24.8 46.9112 24.7769 46.6221 24.7306C46.333 24.6844 46.0515 24.6165 45.7778 24.5255C45.5041 24.4361 45.2458 24.325 44.9991 24.194C44.7542 24.0614 44.5268 23.9133 44.3167 23.7452C44.1085 23.5787 43.9215 23.3967 43.7577 23.1993C43.5938 23.0035 43.455 22.7953 43.3413 22.5779C43.2295 22.3589 43.1428 22.1337 43.0869 21.9024C43.029 21.6711 43.0001 21.4367 43.0001 21.1992C43.0001 20.9633 43.029 20.7289 43.0869 20.4976C43.1428 20.2663 43.2295 20.0411 43.3413 19.8222C43.455 19.6032 43.5938 19.3965 43.7577 19.1992C43.9215 19.0033 44.1085 18.8213 44.3167 18.6548C44.5268 18.4867 44.7542 18.3371 44.9991 18.206C45.2458 18.075 45.5041 17.9639 45.7778 17.873C46.0515 17.7835 46.333 17.7157 46.6221 17.6694C46.9112 17.6231 47.2042 17.6 47.4992 17.6C47.796 17.6 48.089 17.6231 48.3781 17.6694C48.6673 17.7157 48.9487 17.7835 49.2224 17.873C49.4942 17.9639 49.7545 18.075 49.9993 18.206C50.246 18.3371 50.4735 18.4867 50.6816 18.6548C50.8917 18.8213 51.0768 19.0033 51.2426 19.1992C51.4064 19.3965 51.5452 19.6032 51.657 19.8222C51.7707 20.0411 51.8556 20.2663 51.9134 20.4976C51.9712 20.7289 52.0001 20.9633 52.0001 21.1992Z" fill="#002B35"/>
<path d="M46.6685 26.1275C45.0328 25.4448 43.3117 25.0045 41.5069 24.8049C41.3859 24.7911 41.2702 24.8064 41.1599 24.8536C41.0495 24.9008 40.9659 24.9694 40.9053 25.0608C40.2877 25.9918 39.9905 26.9929 40.0101 28.0641C39.9941 28.1388 39.9976 28.2135 40.019 28.2881C40.1881 28.8077 40.4586 29.2847 40.8341 29.7205C41.2079 30.1547 41.6618 30.5159 42.194 30.8069C42.6425 31.0674 43.1391 31.1985 43.6801 31.2C44.0592 31.1893 44.4312 31.1467 44.7997 31.0705C44.9314 31.0476 45.0702 31.0248 45.2179 31.0019C45.3033 30.9882 45.3817 30.9593 45.4529 30.9166C45.5258 30.8739 45.5828 30.8206 45.6273 30.7566C45.6718 30.6926 45.6967 30.624 45.7056 30.5494C45.7145 30.4747 45.7056 30.4031 45.6771 30.333C45.355 29.5132 45.0613 28.9113 44.3387 28.4146C45.3194 28.0946 46.1577 27.5979 46.8536 26.9244C46.9141 26.865 46.9568 26.7964 46.98 26.7202C47.0031 26.644 47.0067 26.5663 46.9889 26.4886C46.9711 26.4124 46.9337 26.3423 46.8767 26.2783C46.8216 26.2158 46.7521 26.1671 46.6685 26.132V26.1275ZM42.9166 28.8626C43.7086 29.1871 44.0165 29.4965 44.3102 30.1105C43.6997 30.2111 43.3598 30.2263 42.8311 29.9399C42.2812 29.6397 41.8469 29.2435 41.5301 28.7544C41.717 28.7727 41.9038 28.7818 42.0925 28.7818C42.3079 28.7818 42.5232 28.7712 42.7368 28.7514C42.7884 28.7986 42.8489 28.8352 42.9184 28.8626H42.9166ZM41.2133 27.6802C41.2578 27.0478 41.4393 26.4444 41.7561 25.873C42.9984 26.0391 44.1998 26.3286 45.3603 26.7415C44.1874 27.5567 42.5731 27.9346 41.215 27.6802H41.2133Z" fill="#002B35"/>
<path d="M33.0382 14.2636C33.128 14.2878 33.2201 14.297 33.3143 14.2915C33.4085 14.2859 33.4983 14.2674 33.5815 14.2321C33.667 14.1969 33.7414 14.1505 33.805 14.093C33.8685 14.0337 33.9189 13.9688 33.9517 13.8927C33.9846 13.8186 34.0021 13.7425 33.9999 13.6628C33.9999 13.583 33.9824 13.507 33.9452 13.4328C33.9101 13.3586 33.8597 13.2937 33.794 13.2362C33.7283 13.1788 33.6516 13.1342 33.5662 13.1009C33.2748 13.0063 32.9747 12.9321 32.668 12.882C32.3613 12.832 32.0524 12.8041 31.7392 12.8004C31.4259 12.7967 31.1148 12.8171 30.8059 12.8616C30.497 12.9043 30.1969 12.971 29.9012 13.0601C29.6076 13.1491 29.325 13.2604 29.0534 13.392C28.7817 13.5255 28.5276 13.6758 28.2888 13.8464C28.0501 14.0188 27.8288 14.2062 27.6295 14.4102C27.4301 14.6141 27.2548 14.8311 27.1015 15.0611C27.0511 15.1334 27.0204 15.2113 27.0073 15.2948C26.9942 15.3764 26.9985 15.458 27.0248 15.5396C27.0511 15.6193 27.0949 15.6935 27.1541 15.7602C27.2154 15.8251 27.2877 15.8789 27.3753 15.9197C27.4608 15.9605 27.5528 15.9865 27.6514 15.9958C27.7477 16.005 27.8441 15.9995 27.9405 15.9754C28.0347 15.9531 28.1202 15.916 28.1968 15.8622C28.2757 15.8103 28.337 15.7473 28.383 15.6731C28.4948 15.508 28.6218 15.3504 28.7642 15.2039C28.9088 15.0574 29.0665 14.922 29.2374 14.7977C29.4105 14.6753 29.5945 14.5659 29.7895 14.4714C29.9844 14.3768 30.1882 14.2952 30.4007 14.2321C30.611 14.1672 30.83 14.119 31.0513 14.0893C31.2725 14.0578 31.4982 14.043 31.7216 14.0448C31.9473 14.0485 32.1707 14.0671 32.392 14.1042C32.6132 14.1412 32.8301 14.1932 33.0382 14.2636Z" fill="#002B35"/>
<path d="M34.0001 21.2C34.0001 21.3592 33.9617 21.5117 33.8864 21.6589C33.8095 21.806 33.7008 21.9358 33.5603 22.0482C33.4199 22.1605 33.2576 22.2475 33.0737 22.3077C32.8898 22.3692 32.6991 22.4 32.5001 22.4C32.3011 22.4 32.1105 22.3692 31.9265 22.3077C31.7426 22.2475 31.5804 22.1605 31.4399 22.0482C31.2995 21.9358 31.1908 21.806 31.1138 21.6589C31.0386 21.5117 31.0001 21.3592 31.0001 21.2C31.0001 21.0408 31.0386 20.887 31.1138 20.7398C31.1908 20.594 31.2995 20.4642 31.4399 20.3505C31.5804 20.2381 31.7426 20.1525 31.9265 20.091C32.1105 20.0308 32.3011 20 32.5001 20C32.6991 20 32.8898 20.0308 33.0737 20.091C33.2576 20.1525 33.4199 20.2381 33.5603 20.3505C33.7008 20.4642 33.8095 20.594 33.8864 20.7398C33.9617 20.887 34.0001 21.0408 34.0001 21.2Z" fill="white"/>
<path d="M47.0001 21.2C47.0001 21.3592 46.9633 21.5117 46.8863 21.6589C46.8111 21.806 46.7023 21.9358 46.5618 22.0482C46.4212 22.1605 46.2589 22.2475 46.0749 22.3077C45.8908 22.3692 45.6984 22.4 45.4993 22.4C45.3002 22.4 45.1094 22.3692 44.9254 22.3077C44.7413 22.2475 44.579 22.1605 44.4385 22.0482C44.2979 21.9358 44.1892 21.806 44.1139 21.6589C44.0369 21.5117 44.0001 21.3592 44.0001 21.2C44.0001 21.0408 44.0369 20.887 44.1139 20.7398C44.1892 20.594 44.2979 20.4642 44.4385 20.3505C44.579 20.2381 44.7413 20.1525 44.9254 20.091C45.1094 20.0308 45.3002 20 45.4993 20C45.6984 20 45.8908 20.0308 46.0749 20.091C46.2589 20.1525 46.4212 20.2381 46.5618 20.3505C46.7023 20.4642 46.8111 20.594 46.8863 20.7398C46.9633 20.887 47.0001 21.0408 47.0001 21.2Z" fill="white"/>
<path d="M74.5368 20.1657C74.4026 20.0028 74.278 19.7785 74.163 19.491C74.0528 19.2054 74.0001 18.9045 74.0001 18.5864C74.0001 17.9999 74.163 17.5782 74.4889 17.3214C74.8195 17.0664 75.2484 16.938 75.773 16.938H88.078C88.2122 17.1029 88.332 17.3271 88.4422 17.6127C88.5572 17.9002 88.6147 18.2011 88.6147 18.5174C88.6147 19.1058 88.447 19.5274 88.1164 19.7824C87.7905 20.0392 87.3641 20.1657 86.8418 20.1657H83.708V30.5923C83.4972 30.6383 83.1714 30.6843 82.7305 30.7303C82.2897 30.7763 81.8513 30.7993 81.4176 30.7993C80.9888 30.7993 80.6078 30.7706 80.2772 30.715C79.9514 30.6652 79.6735 30.5732 79.4435 30.439C79.2183 30.301 79.0505 30.1132 78.9355 29.8717C78.8253 29.6321 78.7726 29.3158 78.7726 28.921V20.1657H74.5368Z" fill="white"/>
<path d="M147.902 25.632C147.902 26.4447 147.725 27.1864 147.375 27.8553C147.03 28.5262 146.527 29.0973 145.87 29.5727C145.211 30.0442 144.414 30.4064 143.474 30.6613C142.535 30.9163 141.472 31.0447 140.283 31.0447C139.1 31.0447 138.041 30.9163 137.102 30.6613C136.162 30.4064 135.36 30.0442 134.696 29.5727C134.037 29.0973 133.537 28.5262 133.192 27.8553C132.847 27.1864 132.674 26.4447 132.674 25.632V17.007C132.878 16.9763 133.204 16.9361 133.652 16.8843C134.104 16.8288 134.538 16.8 134.955 16.8C135.389 16.8 135.769 16.8288 136.095 16.8843C136.426 16.9361 136.704 17.03 136.929 17.168C137.152 17.3022 137.322 17.4881 137.437 17.7277C137.552 17.9692 137.609 18.2854 137.609 18.6783V25.563C137.609 26.2837 137.859 26.8491 138.357 27.2573C138.855 27.6618 139.497 27.863 140.283 27.863C141.093 27.863 141.742 27.6618 142.229 27.2573C142.72 26.8491 142.967 26.2837 142.967 25.563V17.007C143.17 16.9763 143.498 16.9361 143.954 16.8843C144.406 16.8288 144.84 16.8 145.257 16.8C145.683 16.8 146.062 16.8288 146.388 16.8843C146.718 16.9361 146.996 17.03 147.222 17.168C147.452 17.3022 147.619 17.4881 147.729 17.7277C147.844 17.9692 147.902 18.2854 147.902 18.6783V25.632Z" fill="white"/>
</svg>
